<svg width="204" height="205" viewBox="0 0 204 205" fill="none" xmlns="http://www.w3.org/2000/svg">
<path d="M203.062 102.15C203.062 158.049 157.814 203.363 102 203.363C46.186 203.363 0.9375 158.049 0.9375 102.15C0.9375 46.2506 46.186 0.9375 102 0.9375C157.814 0.9375 203.062 46.2506 203.062 102.15Z" fill="white" stroke="#E6E6E6" stroke-width="1.875"/>
<path fill-rule="evenodd" clip-rule="evenodd" d="M109 0.236816C106.687 0.079834 104.353 0 102 0C45.667 0 0 45.7341 0 102.15C0 131.377 12.2566 157.737 31.9028 176.356L37.0046 171.247C18.6626 153.936 7.21216 129.382 7.21216 102.15C7.21216 49.7231 49.6501 7.22266 102 7.22266C104.354 7.22266 106.689 7.30859 109 7.47754V0.236816Z" fill="#EBCB80"/>
</svg>
