<svg width="204" height="205" viewBox="0 0 204 205" fill="none" xmlns="http://www.w3.org/2000/svg">
<path d="M203.062 102.15C203.062 158.049 157.814 203.363 102 203.363C46.186 203.363 0.9375 158.049 0.9375 102.15C0.9375 46.2506 46.186 0.9375 102 0.9375C157.814 0.9375 203.062 46.2506 203.062 102.15Z" fill="white" stroke="#E6E6E6" stroke-width="1.875"/>
<path fill-rule="evenodd" clip-rule="evenodd" d="M102 0C45.667 0 0 45.7341 0 102.15C0 158.566 45.667 204.3 102 204.3C158.333 204.3 204 158.566 204 102.15C204 102.026 204 101.902 203.999 101.779H196.787C196.788 101.902 196.788 102.026 196.788 102.15C196.788 154.577 154.35 197.077 102 197.077C49.6501 197.077 7.21216 154.577 7.21216 102.15C7.21216 49.7231 49.6501 7.22266 102 7.22266V0Z" fill="#EBCB80"/>
</svg>
