<svg width="204" height="205" fill="none" xmlns="http://www.w3.org/2000/svg"><path d="M203.062 102.15c0 55.899-45.248 101.213-101.062 101.213S.937 158.049.937 102.15C.938 46.25 46.187.937 102 .937S203.062 46.252 203.062 102.15Z" fill="#fff" stroke="#E6E6E6" stroke-width="1.875"/><path fill-rule="evenodd" clip-rule="evenodd" d="M102 0C45.667 0 0 45.734 0 102.15 0 158.566 45.667 204.3 102 204.3s102-45.734 102-102.15l-.001-.371h-7.212l.001.371c0 52.427-42.438 94.927-94.788 94.927-52.35 0-94.788-42.5-94.788-94.927C7.212 49.723 49.65 7.223 102 7.223V0Z" fill="#EBCB80"/></svg>