<svg width="204" height="205" fill="none" xmlns="http://www.w3.org/2000/svg"><path d="M203.062 102.15c0 55.899-45.248 101.213-101.062 101.213S.937 158.049.937 102.15C.938 46.25 46.187.937 102 .937S203.062 46.252 203.062 102.15Z" fill="#fff" stroke="#E6E6E6" stroke-width="1.875"/><path fill-rule="evenodd" clip-rule="evenodd" d="M109 .237A103.362 103.362 0 0 0 102 0C45.667 0 0 45.734 0 102.15c0 29.227 12.257 55.587 31.903 74.206l5.102-5.109C18.663 153.936 7.212 129.382 7.212 102.15 7.212 49.723 49.65 7.223 102 7.223c2.354 0 4.689.086 7 .255V.237Z" fill="#EBCB80"/></svg>