<svg width="205" height="205" viewBox="0 0 205 205" fill="none" xmlns="http://www.w3.org/2000/svg">
<path d="M203.812 102.15C203.812 158.049 158.564 203.363 102.75 203.363C46.936 203.363 1.6875 158.049 1.6875 102.15C1.6875 46.2506 46.936 0.9375 102.75 0.9375C158.564 0.9375 203.812 46.2506 203.812 102.15Z" fill="white" stroke="#E6E6E6" stroke-width="1.875"></path>
<path fill-rule="evenodd" clip-rule="evenodd" d="M103.75 0.00488281C103.417 0.00170898 103.084 0 102.75 0C46.417 0 0.75 45.7341 0.75 102.15C0.75 158.566 46.417 204.3 102.75 204.3C159.083 204.3 204.75 158.566 204.75 102.15C204.75 77.79 196.236 55.4219 182.025 37.8669L176.895 43.0044C189.815 59.2275 197.538 79.7854 197.538 102.15C197.538 154.577 155.1 197.077 102.75 197.077C50.4001 197.077 7.96216 154.577 7.96216 102.15C7.96216 49.7231 50.4001 7.22266 102.75 7.22266C103.084 7.22266 103.417 7.22437 103.75 7.22778V0.00488281Z" fill="#EBCB80"></path>
</svg>
