<svg width="205" height="205" fill="none" xmlns="http://www.w3.org/2000/svg"><path d="M203.812 102.15c0 55.899-45.248 101.213-101.062 101.213S1.687 158.049 1.687 102.15C1.688 46.25 46.937.937 102.75.937S203.812 46.252 203.812 102.15Z" fill="#fff" stroke="#E6E6E6" stroke-width="1.875"/><path fill-rule="evenodd" clip-rule="evenodd" d="M103.75.005c-.333-.003-.666-.005-1-.005C46.417 0 .75 45.734.75 102.15c0 56.416 45.667 102.15 102 102.15s102-45.734 102-102.15c0-24.36-8.514-46.728-22.725-64.283l-5.13 5.137c12.92 16.224 20.643 36.781 20.643 59.146 0 52.427-42.438 94.927-94.788 94.927-52.35 0-94.788-42.5-94.788-94.927 0-52.427 42.438-94.927 94.788-94.927.334 0 .667.001 1 .005V.005Z" fill="#EBCB80"/></svg>