<svg width="26" height="24" fill="none" xmlns="http://www.w3.org/2000/svg"><mask id="mask0_0_571" style="mask-type:luminance" maskUnits="userSpaceOnUse" x="0" y="0" width="26" height="24"><path fill-rule="evenodd" clip-rule="evenodd" d="M.713 23.96h24.692V0H.713v23.96Z" fill="#fff"/></mask><g mask="url('#mask0_0_571')"><path fill-rule="evenodd" clip-rule="evenodd" d="M21.755 20.45h-3.662v-5.57c0-1.327-.024-3.036-1.903-3.036-1.906 0-2.197 1.447-2.197 2.942v5.665h-3.658V8.997h3.511v1.566h.05c.488-.9 1.684-1.85 3.466-1.85 3.708 0 4.393 2.372 4.393 5.456v6.282ZM6.205 7.434c-1.176 0-2.124-.925-2.124-2.065s.948-2.064 2.125-2.064c1.171 0 2.122.925 2.122 2.064 0 1.14-.95 2.065-2.122 2.065ZM4.373 20.45h3.666V8.997H4.372v11.454ZM23.579 0H2.534C1.53 0 .713.775.713 1.73v20.538c0 .956.817 1.732 1.821 1.732H23.58c1.007 0 1.826-.776 1.826-1.732V1.731C25.405.775 24.586 0 23.58 0Z" fill="#EBCB80"/></g></svg>